<?xml version="1.0" encoding="UTF-8"?>
<!-- Created with Inkscape (http://www.inkscape.org/) -->
<svg width="36mm" height="32mm" version="1.1" viewBox="0 0 36 32" xmlns="http://www.w3.org/2000/svg">
 <g fill="#f00">
  <g transform="translate(-47.749 36.78)">
   <path transform="matrix(.83673 .53394 -.76569 .58348 18.634 8.5538)" d="m19.963 21.482c-1.1388 1.0486-24.287-6.1884-24.625-7.6989-0.33871-1.5105 17.503-17.939 18.98-17.477s6.7841 24.127 5.6452 25.176z"/>
   <ellipse cx="12.423" cy="10.361" rx="9.4935" ry="8.734"/>
   <ellipse cx="25.117" cy="10.361" rx="9.4935" ry="8.734"/>
  </g>
  <g transform="translate(-48.183 -2.2242)">
   <path transform="matrix(.83673 .52242 -.76569 .57089 66.047 9.3068)" d="m19.963 21.482c-1.1388 1.0486-24.287-6.1884-24.625-7.6989-0.33871-1.5105 17.503-17.939 18.98-17.477s6.7841 24.127 5.6452 25.176z"/>
   <ellipse cx="73.669" cy="12.26" rx="7.7033" ry="7.8118"/>
   <ellipse cx="58.697" cy="12.26" rx="7.7033" ry="7.8118"/>
  </g>
  <g transform="translate(38.408 33.902)">
   <path transform="matrix(.83673 .52242 -.76569 .57089 16.996 6.3264)" d="m19.963 21.482c-1.1388 1.0486-24.287-6.1884-24.625-7.6989-0.33871-1.5105 17.503-17.939 18.98-17.477s6.7841 24.127 5.6452 25.176z"/>
   <ellipse cx="9.6457" cy="8.2967" rx="8.3543" ry="7.7033"/>
   <ellipse cx="24.51" cy="8.2967" rx="8.3543" ry="7.7033"/>
  </g>
 </g>
</svg>
