<?xml version="1.0" encoding="UTF-8"?>
<!-- Created with Inkscape (http://www.inkscape.org/) -->
<svg width="209.94mm" height="171.66mm" version="1.1" viewBox="0 0 209.94 171.66" xmlns="http://www.w3.org/2000/svg" xmlns:xlink="http://www.w3.org/1999/xlink">
 <defs>
  <linearGradient id="linearGradient54073" x1="54.614" x2="128.78" y1="136.02" y2="136.02" gradientTransform="matrix(1.4322 0 0 1.4322 -25.764 -98.953)" gradientUnits="userSpaceOnUse">
   <stop stop-color="#fff6a2" offset="0"/>
  </linearGradient>
 </defs>
 <g>
  <g fill="#fff6a2" stroke-width=".26458">
   <path d="m18.687 198.89h29.366z"/>
   <path d="m-11.704 104.78"/>
   <path d="m33.37 198.89v21.267"/>
   <path d="m18.687 198.89h29.366z"/>
  </g>
  <g stroke="#000">
   <path transform="matrix(.92358 .34742 -.38729 .86562 287.38 167.54)" d="m-105.52-19.457c-2.5276 3.6164-71.393-2.3488-73.261-6.3459s37.73-60.654 42.126-60.273c4.3956 0.38076 33.662 63.002 31.135 66.619z" fill="#f00" stroke-width=".265"/>
   <path transform="matrix(-2.3564 .73091 -.72857 -1.7618 299.11 391.41)" d="m20.222 182.16c-0.5474 1.8563-30.021 8.9704-31.355 7.5682-1.3339-1.4022 7.242-30.484 9.1233-30.938 1.8813-0.45409 22.779 21.514 22.232 23.37z" fill="#fff6a2" stroke-width=".12003"/>
   <path d="m186.44 119.74a85 85 0 0 1-93.037 49.744 85 85 0 0 1-69.787-79.12 85 85 0 0 1 60.971-86.098 85 85 0 0 1 97.802 39.56l-73.894 42.008z" fill="#f00" stroke-width=".37565"/>
   <path d="m181.86 117.74a80 80 0 0 1-87.564 46.818 80 80 0 0 1-65.682-74.466 80 80 0 0 1 57.384-81.033 80 80 0 0 1 92.049 37.233l-69.547 39.537z" fill="#fff6a2" stroke-width=".37565"/>
  </g>
  <text transform="scale(1.0954 .91289)" x="98.470741" y="64.606529" fill="#ff0000" font-family="'American Typewriter'" font-size="32.096px" font-weight="bold" letter-spacing="0px" stroke="url(#linearGradient54073)" stroke-opacity=".59586" stroke-width="0" text-align="center" text-anchor="middle" style="font-variant-caps:normal;font-variant-east-asian:normal;font-variant-ligatures:normal;font-variant-numeric:normal" xml:space="preserve"><tspan x="98.470741" y="64.606529" text-align="center" style="font-variant-caps:normal;font-variant-east-asian:normal;font-variant-ligatures:normal;font-variant-numeric:normal"><tspan dy="0" rotate="0 0 0 0 0 0" fill="#ff0000" font-family="'American Typewriter'" font-size="32.096px" font-weight="bold" stroke="url(#linearGradient54073)" stroke-opacity=".59586" stroke-width="0" text-align="center" text-anchor="middle" style="font-variant-caps:normal;font-variant-east-asian:normal;font-variant-ligatures:normal;font-variant-numeric:normal">SNACK</tspan></tspan><tspan x="98.470741" y="104.72703" text-align="center" style="font-variant-caps:normal;font-variant-east-asian:normal;font-variant-ligatures:normal;font-variant-numeric:normal">-A-</tspan><tspan x="98.470741" y="144.84753" text-align="center" style="font-variant-caps:normal;font-variant-east-asian:normal;font-variant-ligatures:normal;font-variant-numeric:normal">LOG</tspan></text>
  <text transform="scale(.26458)" fill="#ff0000" font-family="'American Typewriter'" font-size="84.702px" font-weight="bold" stroke="#000000" stroke-width="1.0016" text-align="end" style="font-variant-caps:normal;font-variant-east-asian:normal;font-variant-ligatures:normal;font-variant-numeric:normal;shape-inside:url(#rect43110);white-space:pre" xml:space="preserve"/>
 </g>
</svg>
